# xmcd CD database file
#
# Track frame offsets:
#	300
#	28947
#	53311
#	69851
#	88630
#	114972
#	141592
#	163276
#	195167
#	212455
#	232235
#	257736
#
# Disc length: 3651 seconds
#
# Revision: 0
# Processed by: cddbd v1.5.2PL0 Copyright (c) Steve Scherf et al.
# Submitted via: CDex 1.70
#
DISCID=a30e3f0c
DTITLE=Joanna Pascale - When Lights Are Low
DYEAR=2004
DGENRE=Jazz
TTITLE0=When Lights are Low
TTITLE1=Call Me Irresponsible
TTITLE2=I Just Found Out About Love
TTITLE3=Stardust
TTITLE4=Easy Living
TTITLE5=In the Still of the Night
TTITLE6=Give Me the Simple Life
TTITLE7=You Go to My Head
TTITLE8=Girl Talk
TTITLE9=Too Marvelous For Words
TTITLE10=Fools Rush In
TTITLE11=Come Rain or Come Shine
EXTD=YEAR: 2004
EXTT0=
EXTT1=
EXTT2=
EXTT3=
EXTT4=
EXTT5=
EXTT6=
EXTT7=
EXTT8=
EXTT9=
EXTT10=
EXTT11=
PLAYORDER=
